<svg xmlns="http://www.w3.org/2000/svg" viewBox="0 0 361.41 361.41"><defs><style>.cls-1{fill:#298ffe;}.cls-2{fill:#fff;}</style></defs><g id="Layer_2" data-name="Layer 2"><g id="Layer_1-2" data-name="Layer 1"><circle class="cls-1" cx="180.7" cy="180.7" r="180.7"/><path class="cls-2" d="M268.67,273.28a12.1,12.1,0,0,1-12.11,12.07H107.16a12.09,12.09,0,0,1-12.11-12.07,11.82,11.82,0,0,1,2.39-7.17l.06-.07,2.79-4L213.42,100.19H107.52c-6.65,0-12.46-5.41-12.47-12a12.12,12.12,0,0,1,12.11-12.08H255.52a11.92,11.92,0,0,1,10.25,18L265,95.23l-2.21,3.25L150.85,261.23H256.56A12.08,12.08,0,0,1,268.67,273.28Z"/><path class="cls-2" d="M141.31,187.49l-13,18.93h-46a9.47,9.47,0,0,1,0-18.93Z"/><path class="cls-2" d="M288.53,197a9.44,9.44,0,0,1-9.47,9.46H198.42l13-18.93h67.66A9.46,9.46,0,0,1,288.53,197Z"/><path class="cls-2" d="M163.6,155l-13,18.94H82.33a9.47,9.47,0,0,1,0-18.94Z"/><path class="cls-2" d="M288.53,164.46a9.46,9.46,0,0,1-9.47,9.47H220.7l13-18.94h45.36A9.47,9.47,0,0,1,288.53,164.46Z"/></g></g></svg>